<svg xmlns="http://www.w3.org/2000/svg" viewBox="0 0 46.761 45.508">
  <defs>
    <style>
      .cls-1, .cls-2 {
        fill: #009eff;
      }

      .cls-2 {
        font-size: 17px;
        font-family: MullerMedium, Muller;
      }
    </style>
  </defs>
  <g id="Group_187" data-name="Group 187" transform="translate(-1322 -1130)">
    <g id="noun_884694_cc" transform="translate(1341.677 1083.46)">
      <g id="Group_76" data-name="Group 76" transform="translate(15.891 69.751)">
        <g id="Group_75" data-name="Group 75">
          <path id="Path_159" data-name="Path 159" class="cls-1" d="M739.158,524.581c0,.133-.01.265-.023.4.029-.273,0-.036-.006.018-.012.07-.028.139-.043.208-.032.141-.073.28-.118.418-.022.07-.048.139-.074.208q-.026.069-.054.138.074-.173.008-.025a5.187,5.187,0,0,1-.441.778c-.023.034-.173.234-.024.042-.044.057-.092.113-.139.168a3.858,3.858,0,0,1-.349.353c-.035.032-.222.177-.019.023-.054.041-.11.078-.167.115s-.114.069-.172.1-.255.119-.007.014a2.126,2.126,0,0,1-.368.112c-.22.049.228-.019,0,0a1.88,1.88,0,0,1-.258,0c-.226-.012.224.041,0,0-.063-.012-.125-.03-.186-.047s-.122-.041-.182-.065c.248.1.043.012-.007-.014a2.742,2.742,0,0,1-.339-.216c.2.148.018.009-.02-.023-.071-.061-.138-.128-.2-.194a4.139,4.139,0,0,1-.285-.326c.151.189,0-.008-.024-.042-.043-.061-.082-.123-.122-.186-.08-.126-.152-.257-.221-.39-.034-.066-.066-.134-.1-.2q-.066-.148.008.025-.028-.069-.054-.138a4.886,4.886,0,0,1-.234-.835c-.01-.053-.04-.292-.006-.018-.008-.067-.013-.134-.018-.2a3.267,3.267,0,0,1,.009-.5c-.022.251,0,.006.01-.042.014-.073.032-.145.051-.217s.042-.141.066-.21c.08-.234-.088.184.013-.04a3.06,3.06,0,0,1,.21-.379c.023-.036.168-.233.018-.039.059-.076.123-.147.189-.217a3.094,3.094,0,0,1,.318-.29c-.189.154,0,.007.039-.017.06-.04.123-.076.185-.112s.128-.067.194-.1c.222-.107-.192.072.04-.013a3.065,3.065,0,0,1,.5-.131q.164-.026-.032,0,.076-.007.152-.011c.1-.006.205,0,.308,0q.076,0,.152.011-.2-.03-.032,0c.1.016.194.04.29.065s.187.058.279.091c-.239-.088.054.029.1.052.086.044.168.095.249.146q.06.039.119.081c-.2-.139,0,0,.031.028a3.106,3.106,0,0,1,.4.415c-.16-.2.029.057.056.1.052.082.1.167.14.253q.032.065.061.132-.074-.177-.016-.026c.034.092.06.187.085.282s.042.195.058.293c-.042-.261,0,.136,0,.2a.962.962,0,1,0,1.923,0,4.045,4.045,0,1,0-8.07.4,5.819,5.819,0,0,0,1.8,3.666,3.464,3.464,0,0,0,2.155.933,3.315,3.315,0,0,0,2.232-.887,5.654,5.654,0,0,0,1.88-4.109.962.962,0,0,0-1.923,0Z" transform="translate(-732.989 -520.54)"/>
        </g>
      </g>
      <g id="Group_78" data-name="Group 78" transform="translate(12.79 79.04)">
        <g id="Group_77" data-name="Group 77">
          <path id="Path_160" data-name="Path 160" class="cls-1" d="M688.92,693.74v2.467l.962-.962H677.513l.962.962v-2.453c0-.056,0-.112,0-.168s.006-.1.011-.151c.021-.255-.037.208.008-.041.018-.1.043-.192.07-.287.016-.059.158-.417.055-.181a3.131,3.131,0,0,1,.167-.32c.03-.051.251-.36.094-.159a3.184,3.184,0,0,1,.449-.46q.123-.1-.025.018c.058-.043.118-.082.178-.121a3.145,3.145,0,0,1,.316-.174q.146-.067-.03.01.068-.027.137-.051a3.135,3.135,0,0,1,.354-.1c.049-.01.1-.02.146-.028-.251.045-.006,0,.043,0,.083-.007.166-.008.248-.008h.721l-.68-.282,2.286,2.571a.961.961,0,0,0,1.36,0l2.267-2.571-.68.282h.735c.1,0,.207.006.31.014s.1.011-.032,0c.073.011.146.028.218.045a3.133,3.133,0,0,1,.351.107c.233.083-.185-.087.038.016.065.03.129.065.192.1a3.173,3.173,0,0,1,.3.194c-.206-.146.09.082.135.125a3.156,3.156,0,0,1,.244.261c.158.185-.118-.165.023.033.042.059.079.12.117.181a3.163,3.163,0,0,1,.167.32c-.108-.232.036.121.054.181a3.123,3.123,0,0,1,.083.361c-.045-.251,0-.005,0,.043.006.076.007.153.008.229a.962.962,0,0,0,1.923,0,4.216,4.216,0,0,0-1.963-3.516,4.173,4.173,0,0,0-2.013-.61,3.808,3.808,0,0,0-1.149.031,1.6,1.6,0,0,0-.739.6l-.783.888-1.17,1.326h1.36l-1.252-1.408-.791-.89a1.2,1.2,0,0,0-.963-.554,9.034,9.034,0,0,0-1.409.067,4.214,4.214,0,0,0-1.943.9,4.133,4.133,0,0,0-1.476,3.253v2.373a.971.971,0,0,0,.962.962h12.369a.971.971,0,0,0,.962-.962V693.74a.962.962,0,0,0-1.923,0Z" transform="translate(-676.551 -689.586)"/>
        </g>
      </g>
      <g id="Group_84" data-name="Group 84" transform="translate(-18.08 53.206)">
        <g id="Group_83" data-name="Group 83" transform="translate(0 0)">
          <path id="Path_163" data-name="Path 163" class="cls-1" d="M116.637,233.83a20.261,20.261,0,0,1,.547-2.018c.1-.315.217-.627.336-.937.059-.154.122-.307.185-.46-.086.206.021-.047.033-.074.044-.1.089-.2.135-.3a19.611,19.611,0,0,1,2.076-3.515c.048-.066.1-.13.147-.2.164-.216-.119.151.049-.063.1-.128.2-.254.307-.38.224-.272.457-.536.7-.8a19.752,19.752,0,0,1,1.452-1.42c.244-.216.494-.424.748-.627l.192-.151c-.174.136.041-.03.064-.047.152-.114.306-.226.461-.336a19.62,19.62,0,0,1,1.725-1.09c.119-.067.239-.132.359-.2a.962.962,0,0,0-.971-1.661A20.777,20.777,0,0,0,115,232.42c-.079.3-.15.6-.215.9a.977.977,0,0,0,.672,1.183.967.967,0,0,0,1.183-.672Z" transform="translate(-114.757 -219.439)"/>
        </g>
      </g>
      <g id="Group_86" data-name="Group 86" transform="translate(-8.653 87.539)">
        <g id="Group_85" data-name="Group 85" transform="translate(0)">
          <path id="Path_164" data-name="Path 164" class="cls-1" d="M305.891,844.6q-.493.266-1,.507c-.169.08-.34.157-.511.232-.007,0-.291.123-.115.05-.116.048-.232.095-.348.14a19.445,19.445,0,0,1-2.249.727c-.37.1-.744.179-1.119.253-.189.037-.379.071-.569.1l-.286.045-.192.028q.143-.019-.033,0a19.881,19.881,0,0,1-4.9,0,.883.883,0,0,1-.128-.017c-.1-.014-.191-.029-.286-.044-.19-.03-.379-.064-.568-.1-.407-.076-.81-.169-1.211-.271a19.454,19.454,0,0,1-2.244-.724l-.261-.1c-.008,0-.291-.123-.116-.048-.172-.073-.342-.151-.512-.229-.366-.169-.726-.352-1.081-.544-.136-.073-.271-.15-.405-.226a.962.962,0,1,0-.971,1.661,20.6,20.6,0,0,0,18.991.762c.367-.17.727-.354,1.083-.546a.962.962,0,0,0-.971-1.661Z" transform="translate(-286.315 -844.26)"/>
        </g>
      </g>
      <g id="Group_88" data-name="Group 88" transform="translate(9.837 52.961)">
        <g id="Group_87" data-name="Group 87" transform="translate(0 0)">
          <path id="Path_165" data-name="Path 165" class="cls-1" d="M623.289,216.759a20.389,20.389,0,0,1,1.778,1.006c.275.174.545.357.811.545.133.094.264.19.395.287l.194.147c-.177-.135.1.076.125.1a19.746,19.746,0,0,1,2.888,2.843c.1.125.205.252.306.38.168.213-.116-.153.048.063.049.065.1.13.146.2.21.283.411.573.606.867a19.624,19.624,0,0,1,1.033,1.76c.152.291.294.587.431.885.069.15.134.3.2.452-.088-.206.019.048.03.075.042.1.082.2.122.307a19.494,19.494,0,0,1,.645,1.973c.058.216.112.433.163.65a.962.962,0,1,0,1.854-.511,20.769,20.769,0,0,0-9.794-13.143c-.331-.191-.668-.37-1.01-.541a.978.978,0,0,0-1.316.345.966.966,0,0,0,.345,1.316Z" transform="translate(-622.818 -214.978)"/>
        </g>
      </g>
    </g>
    <text id="_" data-name="?" class="cls-2" transform="translate(1322 1169)"><tspan x="0" y="0">?</tspan></text>
    <text id="_2" data-name="?" class="cls-2" transform="translate(1339 1143)"><tspan x="0" y="0">?</tspan></text>
  </g>
</svg>
