<svg id="Group_553" data-name="Group 553" xmlns="http://www.w3.org/2000/svg" xmlns:xlink="http://www.w3.org/1999/xlink" viewBox="0 0 89.814 106.639">
  <defs>
    <style>
      .cls-1 {
        fill: none;
      }

      .cls-1, .cls-6 {
        opacity: 0.15;
      }

      .cls-2, .cls-4 {
        fill: #fff;
      }

      .cls-3, .cls-7 {
        fill: #0658a2;
      }

      .cls-4, .cls-5, .cls-7 {
        fill-rule: evenodd;
      }

      .cls-5 {
        fill: #ccefff;
      }

      .cls-8 {
        fill: #009eff;
      }

      .cls-9 {
        fill: #ffbc00;
      }

      .cls-10 {
        filter: url(#Path_443);
      }
    </style>
    <filter id="Path_443" x="0.553" y="1.998" width="88.582" height="104.641" filterUnits="userSpaceOnUse">
      <feOffset dy="3" input="SourceAlpha"/>
      <feGaussianBlur stdDeviation="3" result="blur"/>
      <feFlood flood-opacity="0.212"/>
      <feComposite operator="in" in2="blur"/>
      <feComposite in="SourceGraphic"/>
    </filter>
  </defs>
  <g id="Group_545" data-name="Group 545">
    <rect id="Rectangle_474" data-name="Rectangle 474" class="cls-1" width="89.814" height="106"/>
    <g id="Group_544" data-name="Group 544" transform="translate(9.553 7.998)">
      <g class="cls-10" transform="matrix(1, 0, 0, 1, -9.55, -8)">
        <path id="Path_443-2" data-name="Path 443" class="cls-2" d="M86.147,26.692C75.928,25.644,70.6,25.2,65.423,25.2c-5.2,0-10.5.444-20.724,1.492s-14.6,3.3-14.6,10.5V68.838c0,10,4.062,15.234,12.917,24.532,8.854,9.331,22.374,18.471,22.374,18.471s13.52-9.172,22.374-18.471c8.854-9.331,12.917-14.535,12.917-24.532V37.2C100.682,29.992,96.366,27.739,86.147,26.692Z" transform="translate(-20.55 -17.2)"/>
      </g>
    </g>
  </g>
  <path id="Path_444" data-name="Path 444" class="cls-3" d="M88.374,111.039h0a46.753,46.753,0,0,1-17.55,5.776,42.885,42.885,0,0,0,10.568-3.84A28.629,28.629,0,1,0,37.5,81.841v11.3c0,9.331,3.777,14.218,12.06,22.882,8.283,8.7,20.883,17.233,20.883,17.233s12.6-8.537,20.883-17.233c6.633-6.982,10.378-11.489,11.616-17.836A47.167,47.167,0,0,1,88.374,111.039Z" transform="translate(-25.599 -41.504)"/>
  <path id="Path_445" data-name="Path 445" class="cls-2" d="M71.354,122.509A24.754,24.754,0,1,1,96.109,97.754,24.786,24.786,0,0,1,71.354,122.509Zm0-48.271A23.485,23.485,0,1,0,94.84,97.723,23.513,23.513,0,0,0,71.354,74.238Z" transform="translate(-31.811 -49.832)"/>
  <path id="Path_446" data-name="Path 446" class="cls-4" d="M85.749,160.821a14.172,14.172,0,0,1-2.475,1.428,27.515,27.515,0,0,1-5.237,1.777,27.117,27.117,0,0,1-14.5-.508,5.378,5.378,0,0,1-1.841-1.841A19.535,19.535,0,0,1,58.9,151.49v-.19a24.464,24.464,0,0,0,3.428,1.682,22.9,22.9,0,0,0,17.265-.286,16.98,16.98,0,0,1,6.157,8.125" transform="translate(-40.207 -103.283)"/>
  <path id="Path_447" data-name="Path 447" class="cls-5" d="M82.6,193.781a30.859,30.859,0,0,0,12.282-.6,38.7,38.7,0,0,0,8.188-3.078,18.154,18.154,0,0,1,.476,6v.063a1.517,1.517,0,0,1-.317.889,1.811,1.811,0,0,1-.444.413,20.806,20.806,0,0,1-6.823,1.143A21.085,21.085,0,0,1,82.6,193.781" transform="translate(-56.386 -129.769)"/>
  <path id="Path_448" data-name="Path 448" class="cls-4" d="M138.477,147.088a21.251,21.251,0,0,0-3.777-13.171,24.39,24.39,0,0,0-5.2-5.49,2.187,2.187,0,0,1-.1-.254,19.725,19.725,0,0,1,3.618-9.2c.063,0,.159-.032.222,0a25.614,25.614,0,0,1,6.569,5.11,33.452,33.452,0,0,1,7.268,12.6,2.3,2.3,0,0,1-.032.666,21.009,21.009,0,0,1-8.569,9.743" transform="translate(-88.333 -81.203)"/>
  <path id="Path_449" data-name="Path 449" class="cls-5" d="M65.912,108.654a19.317,19.317,0,0,1-5.9-2.761,1.166,1.166,0,0,1-.222-.793,20.941,20.941,0,0,1,13.3-15.9,28.766,28.766,0,0,0-6.22,12.377,31.64,31.64,0,0,0-.952,7.077" transform="translate(-40.808 -60.891)"/>
  <path id="Path_450" data-name="Path 450" class="cls-4" d="M96.969,85.866a4.552,4.552,0,0,1,2.888-.666,20.7,20.7,0,0,1,10.251,2.7A21.405,21.405,0,0,0,100.4,97.99a22.493,22.493,0,0,0-1.968,7.2,14.4,14.4,0,0,1-5.332,1.365,25.8,25.8,0,0,1-4.7,0A30.4,30.4,0,0,1,89.765,97.8a27.491,27.491,0,0,1,7.2-11.933" transform="translate(-60.345 -58.16)"/>
  <path id="Path_451" data-name="Path 451" class="cls-5" d="M160.666,119.323a33.79,33.79,0,0,0-7.68-11.552,28.717,28.717,0,0,0-5.586-4.157,19.588,19.588,0,0,1,5.649-3.713,1.835,1.835,0,0,1,.444.159,20.825,20.825,0,0,1,7.522,16.027,15.8,15.8,0,0,1-.349,3.237" transform="translate(-100.62 -68.195)"/>
  <g id="Group_547" data-name="Group 547" class="cls-6" transform="translate(18.693 27.008)">
    <path id="Path_452" data-name="Path 452" class="cls-7" d="M61.058,153.839a22.9,22.9,0,0,0,17.265-.286,16.751,16.751,0,0,1,6.157,8.093,12.493,12.493,0,0,0,1.269-.825,16.832,16.832,0,0,0-6.157-8.125A22.773,22.773,0,0,1,58.9,151.3v.19c0,.444,0,.92.032,1.365A18.364,18.364,0,0,0,61.058,153.839Z" transform="translate(-58.9 -130.29)"/>
    <path id="Path_453" data-name="Path 453" class="cls-7" d="M102.97,190.1a38.7,38.7,0,0,1-8.188,3.078,30.8,30.8,0,0,1-12.282.6,13.618,13.618,0,0,0,1.523,1.143,31.945,31.945,0,0,0,9.489-.92,38.7,38.7,0,0,0,8.188-3.078,18.154,18.154,0,0,1,.476,6v.063a1.249,1.249,0,0,1-.19.666,5.472,5.472,0,0,0,.666-.222,1.811,1.811,0,0,0,.444-.413,1.443,1.443,0,0,0,.317-.889v-.063A17.153,17.153,0,0,0,102.97,190.1Z" transform="translate(-75.01 -156.777)"/>
    <path id="Path_454" data-name="Path 454" class="cls-7" d="M153.257,136.809a32.632,32.632,0,0,0-7.268-12.6,25.771,25.771,0,0,0-6.569-5.11H139.2a11.478,11.478,0,0,0-.7,1.016,25.942,25.942,0,0,1,6.22,4.919,33.452,33.452,0,0,1,7.268,12.6,2.3,2.3,0,0,1-.032.666,20.738,20.738,0,0,1-6.982,8.664,21.113,21.113,0,0,0,8.251-9.521A1.41,1.41,0,0,0,153.257,136.809Z" transform="translate(-113.238 -108.31)"/>
    <path id="Path_455" data-name="Path 455" class="cls-7" d="M78.759,91.834a20.454,20.454,0,0,1,3.65-1.777,28.766,28.766,0,0,0-6.22,12.377,35.509,35.509,0,0,0-.889,5.84c.413.127.793.286,1.206.381a33.011,33.011,0,0,1,.92-7.077A29.121,29.121,0,0,1,83.647,89.2,21.336,21.336,0,0,0,78.759,91.834Z" transform="translate(-70.095 -87.899)"/>
    <g id="Group_546" data-name="Group 546" transform="translate(17.55)">
      <path id="Path_456" data-name="Path 456" class="cls-7" d="M116.231,85.957a20.5,20.5,0,0,1,10.124,2.634c.444-.286.889-.54,1.365-.793a20.7,20.7,0,0,0-10.251-2.7,4.763,4.763,0,0,0-2.888.666l-.381.381A9.144,9.144,0,0,1,116.231,85.957Z" transform="translate(-114.2 -85.1)"/>
      <path id="Path_457" data-name="Path 457" class="cls-7" d="M118.036,108.135a21.789,21.789,0,0,0-1.936,6.95,6.363,6.363,0,0,0,1.238-.571,22.493,22.493,0,0,1,1.968-7.2,21.213,21.213,0,0,1,6.982-8.41A21.36,21.36,0,0,0,118.036,108.135Z" transform="translate(-115.497 -94.52)"/>
    </g>
    <path id="Path_458" data-name="Path 458" class="cls-7" d="M157.553,100.059a1.835,1.835,0,0,0-.444-.159,21.408,21.408,0,0,0-3.808,2.158,19.341,19.341,0,0,1,2.539-1.333,1.835,1.835,0,0,1,.444.159,20.825,20.825,0,0,1,7.522,16.027v.381c.317.666.635,1.333.889,2a15.523,15.523,0,0,0,.381-3.205A21.026,21.026,0,0,0,157.553,100.059Z" transform="translate(-123.341 -95.203)"/>
  </g>
  <path id="Path_459" data-name="Path 459" class="cls-8" d="M103.363,43.345c-.254-.857-.54-1.682-.825-2.507-1.746-3.142-5.744-4.411-12.6-5.141a188.255,188.255,0,0,0-19.328-1.4,188.255,188.255,0,0,0-19.328,1.4C41.762,36.68,37.7,38.775,37.7,45.5V55.627A31.736,31.736,0,0,1,97.047,71.273a31.347,31.347,0,0,1-3.459,14.408,43.948,43.948,0,0,0,10-17.709V45.44A15.106,15.106,0,0,0,103.363,43.345Z" transform="translate(-25.735 -23.414)"/>
  <g id="Group_549" data-name="Group 549" transform="translate(65.219 15.868)">
    <path id="Path_464" data-name="Path 464" class="cls-9" d="M212.081,53l1.111,2.285,2.539.381-1.841,1.777.444,2.539-2.253-1.206L209.8,59.982l.444-2.539L208.4,55.666l2.539-.381Z" transform="translate(-207.48 -52.048)"/>
    <path id="Path_465" data-name="Path 465" class="cls-2" d="M210.1,50.952l1.143,2.285,2.539.381L211.943,55.4l.444,2.507L210.134,56.7,207.88,57.9l.444-2.507-1.841-1.777,2.539-.381,1.079-2.285m0-.952-.381.762-1.047,2.095-2.317.349-.857.127.6.6,1.682,1.619-.381,2.317-.159.825.762-.381,2.063-1.079,2.063,1.079.762.381-.159-.825-.381-2.317,1.682-1.619.6-.6-.857-.127-2.317-.349-1.047-2.095L210.1,50Z" transform="translate(-205.5 -50)"/>
  </g>
</svg>
