<svg xmlns="http://www.w3.org/2000/svg" viewBox="0 0 56.9 50.4">
  <defs>
    <style>
      .cls-1 {
        fill: #fefcf3;
      }
    </style>
  </defs>
  <g id="Group_642" data-name="Group 642" transform="translate(-1489 -5647)">
    <path id="Path_278" data-name="Path 278" class="cls-1" d="M55.1,18.6a6.11,6.11,0,0,0-1.4-.7A25.189,25.189,0,0,0,4.4,25.2c0,1,.1,2,.2,3A16.021,16.021,0,0,0,.2,35.4L0,36l.6-.2c.4-.1.8-.3,1.2-.4h0c1.4-.5,2.9-1,4.2-1.4a25.192,25.192,0,0,0,48.8-8.8,16.2,16.2,0,0,0-.1-2.2c1.1-.4,1.8-.8,2-1.4l.1-.1v-.1c0-.1.1-.2.1-.4A3.067,3.067,0,0,0,55.1,18.6ZM19.7,12.7l-.1-.9-.1-.3-.3-.7-.2-.2-.6-.8-.2-.2-.6-.8-.2-.3a1.23,1.23,0,0,1-.2-.5c.5-1.3,4.6-1.9,9.7-1.9a72.284,72.284,0,0,1,10.3.7,41.134,41.134,0,0,1,8.3,1.9c1.4.6,2.2,1.2,2.2,1.9a7.352,7.352,0,0,1-1.2,1.7,7.781,7.781,0,0,0-1.7,2.8,115.14,115.14,0,0,0-25-1.8h-.1a2.268,2.268,0,0,1,.1-.4Zm2.9,8.8h0a3.114,3.114,0,0,1,.7-.9h0a4.1,4.1,0,1,1,0,5.8,3.972,3.972,0,0,1-1.1-3.6h0l.1-.4A4.649,4.649,0,0,1,22.6,21.5Zm-3.5-2a7.945,7.945,0,0,0-.6,2.2c-1.3-.3-2.6-.5-3.7-.8-4.1-1.1-6.7-2.2-6.8-3.2a58.162,58.162,0,0,1,12.5-.8A8.164,8.164,0,0,0,19.1,19.5Zm-.2,8.6a25.206,25.206,0,0,0-10.1,2,33.216,33.216,0,0,0-7.4,4.7c-.2.1-.4.1-.5.2a14.662,14.662,0,0,1,5.3-7.4c2.9-2.2,7-3.9,12.5-5H19v-.8a5.7,5.7,0,0,1,1.3.1,3.08,3.08,0,0,1,1.2.5A4.777,4.777,0,1,0,22.9,20c-.5-.2-1.1-.4-1.6-.6a7.569,7.569,0,0,0-1.5-.1,13.574,13.574,0,0,1,1.3-2.4c3.7.1,7.8.3,11.9.6.5,0,1,.1,1.4.1A44.155,44.155,0,0,1,33,22.8a29.071,29.071,0,0,1-1.9,4.3,24.258,24.258,0,0,1-1.4,2c-.5.6-1,1.3-1.6,1.9-2.7,2.4-6,2.8-9.3,2.2-.1-.1-.2-.3-.3-.4l-.3-.6V32H18a.367.367,0,0,1-.3-.1h-.3c-.2,0-.4-.1-.6-.1H13.6a1.952,1.952,0,0,0-.7.1h-.3c-.2,0-.5.1-.7.1h-.3c-.2,0-.5.1-.7.1l-.3.1a.756.756,0,0,0-.4.1H10l-.3.1c-.2,0-.4.1-.6.1H8.8a4.331,4.331,0,0,0-.5.1l-.3.1c-.2,0-.3.1-.5.1l-.4.2a.764.764,0,0,0-.5.2l-.3.1c-1,.3-1.9.6-2.9.9a33.074,33.074,0,0,1,5.8-3.5,23.707,23.707,0,0,1,9.8-2,.265.265,0,0,0,.3-.3C19.2,28.2,19.1,28.1,18.9,28.1Zm16.6-6.4c.2.1.3,0,.4-.1a6.737,6.737,0,0,0,.6-1.7q.15-.9.3-2.1c.4,0,.7.1,1.1.1-.8,5.8-1.8,11.8-6,16.5a11.678,11.678,0,0,1-3.8,2.9,11.99,11.99,0,0,1-6.5.8,2.771,2.771,0,0,1-1.6-1,2.016,2.016,0,0,1-.3-1.1,7.9,7.9,0,0,0,2.8.5,9.827,9.827,0,0,0,2.9-.8c.2-.1.2-.2.2-.4-.1-.2-.2-.2-.4-.2a8.282,8.282,0,0,1-2.7.7,8.789,8.789,0,0,1-2.9-.5h0a1.549,1.549,0,0,1-.8-.8,1.1,1.1,0,0,1,0-.8c4,.8,7.3,0,9.9-2.3h0c.2-.1.3-.3.5-.4a16.931,16.931,0,0,0,2.7-3.6v-.3h0v-.3l.1-.1h0l.1-.2h0l.1-.1h0c.1-.1.1-.2.2-.4h0a22.267,22.267,0,0,0,1.2-3.1,50.68,50.68,0,0,0,1.4-5l.1-.3c.4,0,.7.1,1.1.1-.1.8-.2,1.5-.3,2a7.494,7.494,0,0,1-.5,1.6A.247.247,0,0,0,35.5,21.7Zm4.1,18.7.2,2.6L28.6,49.7h-.1l.3-.3h0c2.2-2.6,4.5-5.1,6.5-7.9.9-1.3,1.8-2.5,2.7-3.9h0l.1-.1v-.3h0l.1-.1h0l.1-.1h0q1.05-1.65,2.1-3.6h0a3.128,3.128,0,0,0,.5-1l.5,1.5.2.8,1.6,5.2-3.4.1h-.3Zm-19,4.1h0l-.2-1.3,2.3-1.7L22,45.9h0l-.4,2.4c-.1,0-.2-.1-.4-.1Zm0,3.5c-.8-.3-1.5-.7-2.3-1l1.8-1.7Zm2-1.9.5-.4.3.6-.6,2.4c-.2-.1-.4-.1-.6-.2Zm.1-.8.4-2.3c.1.1.2.3.3.4a6.034,6.034,0,0,0,.8.8Zm2.6,1.3.6-1.1,3.3,2.4h0c-.4.4-.7.8-1.1,1.2h0c-.2.2-.3.4-.5.5-.7-.1-1.3-.1-2-.2Zm.2-2.2a23.253,23.253,0,0,0,2.8-.5,15.791,15.791,0,0,0,6.4-3.4,19.2,19.2,0,0,0,1.5-1.4c-.5.7-.9,1.4-1.4,2s-1,1.3-1.5,1.9h0c-1.1,1.4-2.3,2.8-3.5,4.2h-.3ZM40.7,24.8a25.69,25.69,0,0,0,0,6.8,36.988,36.988,0,0,1-3.5,5.5A24.958,24.958,0,0,1,34,40.4a16.849,16.849,0,0,1-5.8,3,18.575,18.575,0,0,1-3.4.6l-.9-.9a5.5,5.5,0,0,1-.7-.9c0-.2.1-.3.1-.5a8.223,8.223,0,0,0,.2-2.7h1.1a1.483,1.483,0,0,0,.7-.1h.3c.2,0,.5-.1.7-.1l.3-.1c.2-.1.5-.1.7-.2l.3-.1.6-.3.3-.1.6-.3.3-.2c.2-.1.4-.3.6-.4l.3-.2c.2-.1.3-.3.5-.4l.3-.3c.2-.1.3-.3.5-.4l.3-.3a1.756,1.756,0,0,0,.4-.5h0l.3-.4c.2-.2.3-.4.5-.6l.3-.4a29.528,29.528,0,0,0,4.6-12c.2-1.1.4-2.2.5-3.4,1.3.1,2.6.3,3.8.5A36.715,36.715,0,0,0,40.7,24.8ZM29.8,49.7l10.5-6.3.2-.1v-.2l-.2-2.4,3.4-.1h.4l-.1-.5-1.4-4.5,6.2,4.8A24.531,24.531,0,0,1,29.8,49.7ZM48.9,23.5c-2.1.2-4.6.3-7.4.3.3-1.6.9-3.3,1.5-5.3,5.7.8,10.5,1.8,13,3C55.5,22.4,52.9,23.1,48.9,23.5Zm-5.6-5.6h0l-.3-.1a79.339,79.339,0,0,0-9.8-1C23,16,12.8,15.9,8.1,17c.5-1.3,3.1-2.1,6.5-2.6,1.4-.2,2.9-.3,4.4-.4h.2c9.1-.4,21.2.4,30.9,3.1A20.6,20.6,0,0,1,54.7,19c.9.6,1.5,1.2,1.5,1.8C53.7,19.7,48.9,18.7,43.3,17.9Z" transform="translate(1489 5647)"/>
    <path id="Path_279" data-name="Path 279" class="cls-1" d="M25.3,24c.6,0,.9-.2,1-.6a5.768,5.768,0,0,1,1.4.3c-.3.6-2.1.8-2.7.8a.3.3,0,1,0,0,.6c.8,0,3.3-.3,3.3-1.4h0v-.1a2.036,2.036,0,0,0-.9-1.6,6.9,6.9,0,0,0-2.3-.8.3.3,0,0,0,0,.6,5.249,5.249,0,0,1,2,.6,2.651,2.651,0,0,1,.5.6c-.2,0-.3-.1-.5-.1a13.439,13.439,0,0,0-2.2-.3C24.2,22.6,24.3,24,25.3,24Z" transform="translate(1489 5647)"/>
  </g>
</svg>
